<svg width="242" height="215" viewBox="0 0 242 215" fill="none" xmlns="http://www.w3.org/2000/svg">
<path d="M41.5981 0L29.4289 11.3673L47.5357 28.2969L59.6876 16.9296L41.5894 0H41.5981ZM200.411 0L182.304 16.9296L194.464 28.2969L212.562 11.3754L200.402 0H200.411ZM121 5.04494C118.148 5.07728 115.261 5.23089 112.357 5.56237C112.271 5.56237 112.184 5.5462 112.098 5.56237C77.0424 9.32182 49.1433 35.8158 44.2946 68.4624C40.4226 94.7381 52.0041 118.564 71.3036 133.909C79.198 140.212 84.5378 148.86 86.4286 158.406V206.915H106.134C109.142 211.742 114.63 215 121 215C127.37 215 132.858 211.742 135.866 206.915H155.571V174.576H156.384V164.971C156.384 153.119 162.97 141.169 173.67 131.88C187.982 118.475 198.786 99.4354 198.786 77.5659C198.786 37.6268 163.644 4.67303 121 5.04494ZM121 21.2146C154.405 20.778 181.5 46.3584 181.5 77.5659C181.5 94.4955 173.116 109.404 161.509 120.254L161.786 120.513C150.251 130.463 142.792 143.868 140.697 158.414H102.893C100.992 144.557 94.6393 131.144 82.6344 121.523C67.3624 109.396 58.2615 91.1242 61.3038 70.4917C65.0807 45.0244 87.1719 24.5456 114.241 21.7401C116.476 21.4486 118.727 21.2759 120.983 21.2227L121 21.2146ZM0 77.5659V93.7356H25.9286V77.5659H0ZM216.071 77.5659V93.7356H242V77.5659H216.071ZM47.5357 143.005L29.4376 159.926L41.5981 171.301L59.6789 154.372L47.5357 143.005ZM194.464 143.005L182.312 154.372L200.402 171.301L212.562 159.926L194.464 143.005ZM103.714 174.584H138.286V190.754H103.714V174.584Z" fill="white"/>
</svg>
